<svg xmlns="http://www.w3.org/2000/svg" viewBox="0 0 800 600" width="800" height="600">
<defs><filter id="g"><feTurbulence type="fractalNoise" baseFrequency=".9" numOctaves="2" stitchTiles="stitch"/><feColorMatrix values="0 0 0 0 1 0 0 0 0 1 0 0 0 0 1 0 0 0 .06 0"/></filter>
<pattern id="h" width="6" height="6" patternUnits="userSpaceOnUse" patternTransform="rotate(45)"><path d="M0 0V6" stroke="#e9e7e1" stroke-width="1" stroke-opacity=".55"/></pattern>
<pattern id="h2" width="4" height="4" patternUnits="userSpaceOnUse" patternTransform="rotate(-30)"><path d="M0 0V4" stroke="#e9e7e1" stroke-width=".7" stroke-opacity=".35"/></pattern></defs>
<rect width="800" height="600" fill="#0d0d0e"/><path d="M0 300H800M400 0V600" stroke="#e9e7e1" stroke-opacity=".08"/><path d="M0 120H800M160 0V600" stroke="#e9e7e1" stroke-opacity=".06"/><path d="M0 480H800M640 0V600" stroke="#e9e7e1" stroke-opacity=".06"/>
<g><polygon points="400.0,150.0 300.0,180.0 330.0,230.0" fill="#1c1c1e" stroke="#e9e7e1" stroke-width="0.9" stroke-linejoin="round" /><polygon points="400.0,150.0 330.0,230.0 400.0,260.0" fill="url(#h)" stroke="#e9e7e1" stroke-width="0.9" stroke-linejoin="round" /><polygon points="400.0,150.0 400.0,260.0 470.0,230.0" fill="#242427" stroke="#e9e7e1" stroke-width="0.9" stroke-linejoin="round" /><polygon points="400.0,150.0 470.0,230.0 500.0,180.0" fill="#111112" stroke="#e9e7e1" stroke-width="0.9" stroke-linejoin="round" /><polygon points="330.0,230.0 360.0,300.0 400.0,260.0" fill="url(#h2)" stroke="#e9e7e1" stroke-width="0.9" stroke-linejoin="round" /><polygon points="400.0,260.0 440.0,300.0 470.0,230.0" fill="#1c1c1e" stroke="#e9e7e1" stroke-width="0.9" stroke-linejoin="round" /><polygon points="360.0,300.0 400.0,350.0 400.0,260.0" fill="url(#h)" stroke="#e9e7e1" stroke-width="0.9" stroke-linejoin="round" /><polygon points="400.0,260.0 400.0,350.0 440.0,300.0" fill="#242427" stroke="#e9e7e1" stroke-width="0.9" stroke-linejoin="round" /><polygon points="300.0,180.0 330.0,230.0 360.0,300.0" fill="#111112" stroke="#e9e7e1" stroke-width="0.9" stroke-linejoin="round" /><polygon points="500.0,180.0 470.0,230.0 440.0,300.0" fill="url(#h2)" stroke="#e9e7e1" stroke-width="0.9" stroke-linejoin="round" /><polygon points="360.0,350.0 440.0,350.0 480.0,470.0 320.0,470.0" fill="#161618" stroke="#e9e7e1" stroke-width="1.2" stroke-linejoin="round" /><polygon points="440.0,350.0 480.0,470.0 560.0,440.0 520.0,380.0" fill="url(#h)" stroke="#e9e7e1" stroke-width="1" stroke-linejoin="round" /><polygon points="330.0,230.0 300.0,180.0 345.0,205.0" fill="#c8102e" stroke="#e9e7e1" stroke-width="0.8" stroke-linejoin="round" /><circle cx="372" cy="262" r="3" fill="#e9e7e1"/><circle cx="428" cy="262" r="3" fill="#e9e7e1"/></g>
<circle cx="222.0" cy="590.3" r="0.18" fill="#e9e7e1" opacity="0.46"/><circle cx="556.8" cy="376.1" r="1.02" fill="#e9e7e1" opacity="0.48"/><circle cx="752.2" cy="437.3" r="0.76" fill="#e9e7e1" opacity="0.16"/><circle cx="110.4" cy="437.8" r="0.96" fill="#e9e7e1" opacity="0.34"/><circle cx="76.2" cy="562.9" r="0.73" fill="#e9e7e1" opacity="0.42"/><circle cx="376.9" cy="458.6" r="0.25" fill="#e9e7e1" opacity="0.61"/><circle cx="459.2" cy="323.5" r="0.25" fill="#e9e7e1" opacity="0.49"/><circle cx="85.9" cy="111.6" r="0.48" fill="#e9e7e1" opacity="0.46"/><circle cx="356.2" cy="156.5" r="1.12" fill="#e9e7e1" opacity="0.33"/><circle cx="210.4" cy="75.9" r="0.24" fill="#e9e7e1" opacity="0.27"/><circle cx="482.3" cy="165.4" r="1.04" fill="#e9e7e1" opacity="0.33"/><circle cx="562.4" cy="41.4" r="1.26" fill="#e9e7e1" opacity="0.56"/><circle cx="132.8" cy="243.1" r="1.58" fill="#e9e7e1" opacity="0.23"/><circle cx="238.1" cy="50.6" r="1.90" fill="#e9e7e1" opacity="0.45"/><circle cx="553.6" cy="532.5" r="1.60" fill="#e9e7e1" opacity="0.41"/><circle cx="313.4" cy="377.7" r="0.22" fill="#e9e7e1" opacity="0.19"/><circle cx="161.7" cy="424.6" r="0.09" fill="#e9e7e1" opacity="0.32"/><circle cx="788.8" cy="545.3" r="2.14" fill="#e9e7e1" opacity="0.64"/><circle cx="15.2" cy="293.7" r="1.84" fill="#e9e7e1" opacity="0.40"/><circle cx="585.3" cy="479.0" r="1.63" fill="#e9e7e1" opacity="0.41"/><circle cx="334.0" cy="571.0" r="1.92" fill="#e9e7e1" opacity="0.51"/><circle cx="588.9" cy="199.3" r="1.23" fill="#e9e7e1" opacity="0.36"/><circle cx="69.5" cy="554.4" r="1.55" fill="#e9e7e1" opacity="0.45"/><circle cx="146.8" cy="450.2" r="0.23" fill="#e9e7e1" opacity="0.32"/><circle cx="325.7" cy="557.3" r="0.49" fill="#e9e7e1" opacity="0.46"/><circle cx="612.2" cy="66.9" r="1.18" fill="#e9e7e1" opacity="0.19"/><circle cx="428.9" cy="193.8" r="1.13" fill="#e9e7e1" opacity="0.25"/><circle cx="739.7" cy="279.3" r="1.67" fill="#e9e7e1" opacity="0.62"/><circle cx="248.2" cy="1.6" r="0.04" fill="#e9e7e1" opacity="0.60"/><circle cx="730.5" cy="354.4" r="2.13" fill="#e9e7e1" opacity="0.30"/><circle cx="765.9" cy="402.8" r="0.05" fill="#e9e7e1" opacity="0.48"/><circle cx="528.0" cy="175.3" r="1.26" fill="#e9e7e1" opacity="0.61"/><circle cx="497.9" cy="401.9" r="0.95" fill="#e9e7e1" opacity="0.16"/><circle cx="363.0" cy="157.9" r="0.78" fill="#e9e7e1" opacity="0.49"/><circle cx="563.5" cy="221.3" r="1.96" fill="#e9e7e1" opacity="0.42"/><circle cx="348.8" cy="305.5" r="0.02" fill="#e9e7e1" opacity="0.21"/><circle cx="6.4" cy="74.3" r="0.41" fill="#e9e7e1" opacity="0.23"/><circle cx="726.7" cy="200.4" r="2.08" fill="#e9e7e1" opacity="0.23"/><circle cx="564.5" cy="475.6" r="2.17" fill="#e9e7e1" opacity="0.46"/><circle cx="361.4" cy="533.2" r="0.97" fill="#e9e7e1" opacity="0.55"/><circle cx="90.5" cy="489.8" r="1.92" fill="#e9e7e1" opacity="0.22"/><circle cx="686.2" cy="169.6" r="0.14" fill="#e9e7e1" opacity="0.15"/><circle cx="222.0" cy="516.3" r="1.53" fill="#e9e7e1" opacity="0.60"/><circle cx="698.2" cy="155.0" r="1.01" fill="#e9e7e1" opacity="0.43"/><circle cx="302.1" cy="12.6" r="0.55" fill="#e9e7e1" opacity="0.50"/><circle cx="603.8" cy="255.7" r="0.90" fill="#e9e7e1" opacity="0.63"/><circle cx="749.3" cy="355.2" r="0.53" fill="#e9e7e1" opacity="0.51"/><circle cx="513.9" cy="38.6" r="0.46" fill="#e9e7e1" opacity="0.40"/><circle cx="678.3" cy="237.0" r="1.26" fill="#e9e7e1" opacity="0.31"/><circle cx="589.4" cy="288.0" r="0.83" fill="#e9e7e1" opacity="0.28"/><circle cx="169.8" cy="403.3" r="2.16" fill="#e9e7e1" opacity="0.57"/><circle cx="236.1" cy="559.8" r="1.46" fill="#e9e7e1" opacity="0.28"/><circle cx="791.2" cy="324.8" r="1.98" fill="#e9e7e1" opacity="0.40"/><circle cx="350.6" cy="73.4" r="0.80" fill="#e9e7e1" opacity="0.49"/><circle cx="366.9" cy="8.1" r="1.63" fill="#e9e7e1" opacity="0.37"/><circle cx="614.9" cy="140.6" r="2.12" fill="#e9e7e1" opacity="0.19"/><circle cx="398.3" cy="343.6" r="0.88" fill="#e9e7e1" opacity="0.49"/><circle cx="642.5" cy="333.2" r="0.19" fill="#e9e7e1" opacity="0.49"/><circle cx="534.5" cy="191.2" r="0.27" fill="#e9e7e1" opacity="0.28"/><circle cx="173.2" cy="386.3" r="1.61" fill="#e9e7e1" opacity="0.55"/><circle cx="92.2" cy="403.3" r="1.47" fill="#e9e7e1" opacity="0.32"/><circle cx="718.2" cy="40.9" r="1.95" fill="#e9e7e1" opacity="0.31"/><circle cx="226.4" cy="385.5" r="1.74" fill="#e9e7e1" opacity="0.42"/><circle cx="656.3" cy="422.8" r="0.82" fill="#e9e7e1" opacity="0.18"/><circle cx="350.5" cy="394.4" r="0.08" fill="#e9e7e1" opacity="0.20"/><circle cx="578.2" cy="359.7" r="0.13" fill="#e9e7e1" opacity="0.40"/><circle cx="6.6" cy="573.2" r="1.82" fill="#e9e7e1" opacity="0.28"/><circle cx="482.4" cy="234.9" r="0.83" fill="#e9e7e1" opacity="0.27"/><circle cx="586.0" cy="324.9" r="1.97" fill="#e9e7e1" opacity="0.51"/><circle cx="20.6" cy="179.9" r="0.31" fill="#e9e7e1" opacity="0.58"/><circle cx="499.3" cy="422.8" r="0.02" fill="#e9e7e1" opacity="0.17"/><circle cx="192.4" cy="403.0" r="1.47" fill="#e9e7e1" opacity="0.42"/><circle cx="596.8" cy="58.3" r="2.20" fill="#e9e7e1" opacity="0.27"/><circle cx="91.3" cy="56.5" r="0.54" fill="#e9e7e1" opacity="0.64"/><circle cx="638.9" cy="226.9" r="0.29" fill="#e9e7e1" opacity="0.30"/><circle cx="699.6" cy="40.9" r="1.93" fill="#e9e7e1" opacity="0.22"/><circle cx="416.1" cy="250.8" r="1.70" fill="#e9e7e1" opacity="0.61"/><circle cx="533.9" cy="146.6" r="0.79" fill="#e9e7e1" opacity="0.31"/><circle cx="719.8" cy="39.7" r="0.75" fill="#e9e7e1" opacity="0.27"/><circle cx="740.2" cy="133.3" r="1.49" fill="#e9e7e1" opacity="0.20"/><circle cx="162.2" cy="288.8" r="1.39" fill="#e9e7e1" opacity="0.39"/><circle cx="439.5" cy="546.9" r="1.48" fill="#e9e7e1" opacity="0.35"/><circle cx="646.7" cy="14.3" r="0.89" fill="#e9e7e1" opacity="0.65"/><circle cx="722.9" cy="273.5" r="0.19" fill="#e9e7e1" opacity="0.44"/><circle cx="688.5" cy="426.5" r="0.66" fill="#e9e7e1" opacity="0.65"/><circle cx="497.0" cy="431.4" r="1.90" fill="#e9e7e1" opacity="0.52"/><circle cx="584.4" cy="140.4" r="0.15" fill="#e9e7e1" opacity="0.48"/><circle cx="179.1" cy="200.4" r="1.74" fill="#e9e7e1" opacity="0.56"/><circle cx="233.7" cy="323.6" r="0.24" fill="#e9e7e1" opacity="0.17"/><circle cx="442.8" cy="188.6" r="0.97" fill="#e9e7e1" opacity="0.17"/><circle cx="86.2" cy="525.6" r="0.80" fill="#e9e7e1" opacity="0.42"/><circle cx="96.4" cy="561.5" r="1.12" fill="#e9e7e1" opacity="0.58"/><circle cx="85.2" cy="524.1" r="0.59" fill="#e9e7e1" opacity="0.67"/><circle cx="83.5" cy="529.0" r="3.29" fill="#e9e7e1" opacity="0.64"/><circle cx="89.4" cy="525.2" r="0.49" fill="#e9e7e1" opacity="0.42"/><circle cx="102.4" cy="504.3" r="2.58" fill="#e9e7e1" opacity="0.32"/><circle cx="50.7" cy="506.3" r="1.48" fill="#e9e7e1" opacity="0.70"/><circle cx="91.1" cy="523.8" r="0.86" fill="#e9e7e1" opacity="0.64"/><circle cx="71.4" cy="525.8" r="1.69" fill="#e9e7e1" opacity="0.38"/><circle cx="83.5" cy="520.5" r="1.61" fill="#e9e7e1" opacity="0.56"/><circle cx="76.0" cy="545.7" r="2.69" fill="#e9e7e1" opacity="0.61"/><circle cx="82.6" cy="537.1" r="0.47" fill="#e9e7e1" opacity="0.64"/><circle cx="91.1" cy="514.9" r="0.96" fill="#e9e7e1" opacity="0.49"/><circle cx="86.4" cy="525.3" r="0.82" fill="#e9e7e1" opacity="0.67"/><circle cx="440.2" cy="209.8" r="1.26" fill="#e9e7e1" opacity="0.39"/><circle cx="440.9" cy="208.3" r="1.13" fill="#e9e7e1" opacity="0.61"/><circle cx="447.7" cy="201.5" r="2.67" fill="#e9e7e1" opacity="0.57"/><circle cx="460.0" cy="224.2" r="1.84" fill="#e9e7e1" opacity="0.46"/><circle cx="457.7" cy="201.7" r="3.46" fill="#e9e7e1" opacity="0.65"/><circle cx="453.5" cy="237.9" r="1.51" fill="#e9e7e1" opacity="0.63"/><circle cx="445.7" cy="199.7" r="2.47" fill="#e9e7e1" opacity="0.64"/><circle cx="451.6" cy="197.2" r="0.45" fill="#e9e7e1" opacity="0.47"/><circle cx="462.8" cy="196.5" r="0.42" fill="#e9e7e1" opacity="0.45"/><circle cx="444.6" cy="199.7" r="3.13" fill="#e9e7e1" opacity="0.56"/><circle cx="463.5" cy="216.7" r="1.13" fill="#e9e7e1" opacity="0.34"/><circle cx="440.1" cy="173.5" r="2.36" fill="#e9e7e1" opacity="0.59"/><circle cx="441.4" cy="210.3" r="2.07" fill="#e9e7e1" opacity="0.21"/><circle cx="444.8" cy="199.6" r="0.33" fill="#e9e7e1" opacity="0.44"/><circle cx="177.1" cy="428.4" r="3.06" fill="#e9e7e1" opacity="0.37"/><circle cx="175.4" cy="419.8" r="0.56" fill="#e9e7e1" opacity="0.35"/><circle cx="184.9" cy="439.3" r="0.14" fill="#e9e7e1" opacity="0.27"/><circle cx="179.8" cy="423.1" r="3.33" fill="#e9e7e1" opacity="0.57"/><circle cx="181.3" cy="426.2" r="2.99" fill="#e9e7e1" opacity="0.21"/><circle cx="182.6" cy="400.7" r="0.97" fill="#e9e7e1" opacity="0.31"/><circle cx="178.6" cy="415.2" r="1.45" fill="#e9e7e1" opacity="0.48"/><circle cx="180.6" cy="411.0" r="2.85" fill="#e9e7e1" opacity="0.51"/><circle cx="179.7" cy="423.2" r="3.37" fill="#e9e7e1" opacity="0.67"/><circle cx="191.8" cy="428.5" r="2.80" fill="#e9e7e1" opacity="0.56"/><circle cx="186.6" cy="387.9" r="1.31" fill="#e9e7e1" opacity="0.45"/><circle cx="167.7" cy="443.7" r="0.93" fill="#e9e7e1" opacity="0.50"/><circle cx="195.6" cy="441.5" r="0.37" fill="#e9e7e1" opacity="0.44"/><circle cx="190.2" cy="467.4" r="1.22" fill="#e9e7e1" opacity="0.38"/><circle cx="672.8" cy="365.6" r="2.23" fill="#e9e7e1" opacity="0.50"/><circle cx="685.7" cy="363.5" r="0.93" fill="#e9e7e1" opacity="0.58"/><circle cx="683.1" cy="359.6" r="1.65" fill="#e9e7e1" opacity="0.41"/><circle cx="683.5" cy="362.6" r="2.93" fill="#e9e7e1" opacity="0.51"/><circle cx="662.1" cy="344.6" r="2.97" fill="#e9e7e1" opacity="0.57"/><circle cx="686.6" cy="368.1" r="3.46" fill="#e9e7e1" opacity="0.67"/><circle cx="688.0" cy="361.8" r="2.49" fill="#e9e7e1" opacity="0.50"/><circle cx="692.3" cy="366.2" r="0.80" fill="#e9e7e1" opacity="0.21"/><circle cx="684.8" cy="352.6" r="3.13" fill="#e9e7e1" opacity="0.56"/><circle cx="691.3" cy="372.1" r="2.83" fill="#e9e7e1" opacity="0.44"/><circle cx="686.6" cy="360.4" r="3.03" fill="#e9e7e1" opacity="0.28"/><circle cx="688.5" cy="352.6" r="1.59" fill="#e9e7e1" opacity="0.59"/><circle cx="677.9" cy="378.6" r="1.33" fill="#e9e7e1" opacity="0.58"/><circle cx="685.3" cy="363.7" r="2.38" fill="#e9e7e1" opacity="0.22"/><circle cx="353.3" cy="463.9" r="1.26" fill="#e9e7e1" opacity="0.41"/><circle cx="349.8" cy="463.1" r="1.85" fill="#e9e7e1" opacity="0.33"/><circle cx="331.9" cy="469.4" r="0.47" fill="#e9e7e1" opacity="0.38"/><circle cx="369.6" cy="438.8" r="2.76" fill="#e9e7e1" opacity="0.30"/><circle cx="350.1" cy="466.0" r="0.85" fill="#e9e7e1" opacity="0.38"/><circle cx="334.5" cy="486.7" r="2.79" fill="#e9e7e1" opacity="0.43"/><circle cx="343.8" cy="439.9" r="0.98" fill="#e9e7e1" opacity="0.39"/><circle cx="365.3" cy="459.0" r="1.04" fill="#e9e7e1" opacity="0.32"/><circle cx="347.4" cy="460.7" r="2.66" fill="#e9e7e1" opacity="0.34"/><circle cx="351.9" cy="456.9" r="0.30" fill="#e9e7e1" opacity="0.30"/><circle cx="338.5" cy="467.7" r="2.80" fill="#e9e7e1" opacity="0.34"/><circle cx="352.7" cy="467.1" r="1.31" fill="#e9e7e1" opacity="0.49"/><circle cx="347.5" cy="464.7" r="1.91" fill="#e9e7e1" opacity="0.34"/><circle cx="352.3" cy="465.4" r="1.87" fill="#e9e7e1" opacity="0.60"/><circle cx="108.1" cy="374.3" r="1.93" fill="#e9e7e1" opacity="0.29"/><circle cx="107.5" cy="372.1" r="2.34" fill="#e9e7e1" opacity="0.24"/><circle cx="106.1" cy="372.7" r="0.18" fill="#e9e7e1" opacity="0.53"/><circle cx="105.7" cy="373.4" r="0.33" fill="#e9e7e1" opacity="0.54"/><circle cx="109.7" cy="372.7" r="1.08" fill="#e9e7e1" opacity="0.45"/><circle cx="111.3" cy="373.6" r="0.41" fill="#e9e7e1" opacity="0.44"/><circle cx="101.1" cy="391.2" r="2.82" fill="#e9e7e1" opacity="0.41"/><circle cx="130.4" cy="379.8" r="0.59" fill="#e9e7e1" opacity="0.40"/><circle cx="116.4" cy="382.2" r="2.24" fill="#e9e7e1" opacity="0.64"/><circle cx="98.4" cy="351.0" r="2.70" fill="#e9e7e1" opacity="0.33"/><circle cx="110.3" cy="370.9" r="1.34" fill="#e9e7e1" opacity="0.28"/><circle cx="105.7" cy="371.5" r="3.48" fill="#e9e7e1" opacity="0.38"/><circle cx="107.4" cy="373.7" r="1.54" fill="#e9e7e1" opacity="0.22"/><circle cx="105.0" cy="364.5" r="2.94" fill="#e9e7e1" opacity="0.23"/><rect width="800" height="600" filter="url(#g)" opacity=".6"/>
<g stroke="#e9e7e1" stroke-width="1.5" fill="none" opacity=".8">
    <path d="M24 44V24h20M756 24h20v20M24 556v20h20M776 556v20h-20"/></g><g stroke="#e9e7e1" stroke-opacity=".5"><path d="M386 300h28M400 286v28"/><circle cx="400" cy="300" r="22" fill="none" stroke-opacity=".25"/></g><g font-family="'JetBrains Mono','Courier New',monospace" font-size="11" fill="#e9e7e1" opacity=".7" letter-spacing="1.5">
    <text x="30" y="542">LOW-POLY FOX</text>
    <text x="30" y="556" opacity=".6">LZ // LZ-LF-01 · 26.2445N 80.2064W</text>
    <text x="770" y="52" text-anchor="end" opacity=".6">RESIN</text>
    <text x="770" y="66" text-anchor="end" opacity=".4">MARGATE FL</text></g><rect x="30" y="52" width="6" height="55" fill="#c8102e"/></svg>